<?xml version="1.0" encoding="utf-8"?>
<!-- Generator: Adobe Illustrator 25.4.1, SVG Export Plug-In . SVG Version: 6.00 Build 0)  -->
<svg version="1.1" id="Layer_1" xmlns="http://www.w3.org/2000/svg" xmlns:xlink="http://www.w3.org/1999/xlink" x="0px" y="0px"
	 viewBox="0 0 494 134" style="enable-background:new 0 0 494 134;" xml:space="preserve">
<style type="text/css">
	.st0{clip-path:url(#SVGID_00000017485180387297637090000012528665316717042864_);}
	.st1{fill:#56D60A;}
</style>
<g>
	<defs>
		<rect id="SVGID_1_" width="494" height="134"/>
	</defs>
	<clipPath id="SVGID_00000093860990199367165840000006863055146480012716_">
		<use xlink:href="#SVGID_1_"  style="overflow:visible;"/>
	</clipPath>
	<g style="clip-path:url(#SVGID_00000093860990199367165840000006863055146480012716_);">
		<path d="M90.6,19.2C90.6,5.9,83,0,65.9,0c-7.7,0-12.2,1.1-17.2,4.2C44,1.1,39.5,0,31.6,0C14.4,0,7.1,5.7,7.1,19v99.9H0v14h7.1v0.1
			h20.2V15.1h11.2V133h20.2V15.1h11.7V133h20.2v-0.1h7.1v-14h-7.1V19.2z"/>
		<path d="M153.7,0c-11.2,0-17.3,1.7-21.7,6.1c-3.9,3.8-4.5,8.2-4.5,17.3V115c0,13.2,7.9,19,25.7,19c18.9,0,25.9-5.3,25.9-19.5v-91
			l0.2-4.7C179.4,5.8,171.5,0,153.7,0z M158.9,118.9h-11.2V15.1h11.2V118.9z"/>
		<path d="M245.4,118.3H234V96.7V82.7v0h-26.9v14h6.8l-0.1,13.7v1.3c0,9,0.3,11.1,3.4,14.7c4.2,5.3,10.6,7.5,22.3,7.5
			c18.9,0,26.2-5.5,26.2-19.5V1h-20.2V118.3z"/>
		<path d="M357.1,15.7H368c0.8,0.1,4.8,0.8,5.1,7.2V133h20.2V21.6c0.7-5.2,4.2-5.8,5-5.9H409V1h-51.9V15.7z"/>
		<path d="M494,18.8c0-13-7.9-18.8-25.7-18.8c-11.2,0-17.3,1.7-21.6,6.1c-3.9,3.8-4.5,8.2-4.5,17.3V115c0,13.2,7.9,19,25.7,19
			c18.9,0,25.9-5.3,25.9-19.5v-91L494,18.8z M473.5,118.9h-11.2V15.1h11.2V118.9z"/>
		<path d="M303.2,40.4V133h20.2V40.4c-3.2,1.1-6.6,1.7-10.2,1.7C309.8,42.1,306.4,41.5,303.2,40.4z"/>
		<path class="st1" d="M313.3,21.2c5.6,0,10.1-4.5,10.1-10.1c0-5.6-4.5-10.1-10.1-10.1c-5.6,0-10.1,4.5-10.1,10.1
			C303.2,16.7,307.8,21.2,313.3,21.2z"/>
	</g>
</g>
</svg>
