<svg id="Layer_1" data-name="Layer 1" xmlns="http://www.w3.org/2000/svg" viewBox="0 0 1002 444"><defs><style>.cls-1{fill:#fff;}</style></defs><path class="cls-1" d="M244.62,143.66c0-21.84-12.49-31.58-40.5-31.58-12.56,0-20.09,1.8-28.14,7-7.78-5.23-15.13-7-28.25-7-28.1,0-40.09,9.34-40.09,31.24V307.17H96v22.95h11.64v.08h33.18V136.83h18.31V330.2h33.18V136.83h19.13V330.2h33.18v-.08h11.64V307.17H244.62Z"/><path class="cls-1" d="M390.13,143c0-21.37-13-30.9-42.13-30.9-18.33,0-28.29,2.81-35.5,10-6.41,6.21-7.44,13.47-7.44,28.45V300.68c0,21.6,13,31.24,42.13,31.24,31,0,42.53-8.65,42.53-31.92m-33.17,7.17H338.23V136.83h18.32Z"/><path class="cls-1" d="M498.39,306.14H479.66V247.77H435.6v23h11.11l-.22,22.42v2.05c0,14.75.44,18.19,5.56,24.07,6.84,8.75,17.45,12.32,36.57,12.32,30.9,0,42.94-8.95,42.94-31.93V113.8H498.39Z"/><path class="cls-1" d="M681.54,137.86H699.4c1.39.12,7.93,1.26,8.29,11.74V330.2h33.18V147.48C742,139,747.7,138,749,137.86h17.62V113.8H681.54Z"/><path class="cls-1" d="M906,143c0-21.37-13-30.9-42.13-30.9-18.33,0-28.29,2.81-35.5,10-6.41,6.21-7.45,13.47-7.45,28.45V300.68c0,21.6,13,31.24,42.13,31.24,31,0,42.54-8.65,42.54-31.92m-33.17,7.17H854.1V136.83h18.32Z"/><path class="cls-1" d="M593.23,178.39V330.2h33.18V178.33a50.89,50.89,0,0,1-33.18.06Z"/><circle class="cls-1" cx="609.74" cy="130.3" r="16.5"/></svg>